<?xml version="1.0" standalone="no"?>
<!DOCTYPE svg PUBLIC "-//W3C//DTD SVG 20010904//EN"
 "http://www.w3.org/TR/2001/REC-SVG-20010904/DTD/svg10.dtd">
<svg version="1.0" xmlns="http://www.w3.org/2000/svg"
 width="200.000000pt" height="200.000000pt" viewBox="0 0 200.000000 200.000000"
 preserveAspectRatio="xMidYMid meet">
<metadata>
Created by potrace 1.16, written by Peter Selinger 2001-2019
</metadata>
<g transform="translate(0.000000,200.000000) scale(0.100000,-0.100000)"
fill="#000000" stroke="none">
<path d="M812 1700 c-245 -65 -449 -270 -512 -516 -27 -105 -27 -263 0 -368
63 -248 268 -453 516 -516 105 -27 263 -27 368 0 248 63 453 268 516 516 27
105 27 263 0 368 -63 248 -268 453 -516 516 -103 27 -270 26 -372 0z m347 -46
c236 -53 440 -258 497 -499 24 -107 15 -277 -20 -373 -50 -133 -113 -224 -211
-302 -98 -77 -173 -114 -286 -139 l-39 -9 0 234 0 234 89 0 c77 0 90 3 95 18
7 23 36 161 36 173 0 5 -47 9 -105 9 l-105 0 0 94 c0 72 4 96 16 106 8 8 51
15 95 18 l79 5 0 88 c0 49 0 92 1 97 1 11 -90 30 -153 31 -112 2 -200 -46
-243 -132 -23 -47 -25 -62 -25 -179 l0 -128 -90 0 -90 0 0 -100 0 -100 90 0
90 0 0 -230 c0 -177 -3 -230 -12 -230 -27 0 -112 31 -171 61 -175 89 -306 254
-352 446 -24 99 -17 271 14 363 114 334 451 522 800 444z m94 -259 c14 -6 17
-20 17 -82 l0 -75 -25 6 c-40 10 -126 -5 -146 -25 -16 -16 -19 -35 -19 -129
l0 -110 104 0 104 0 -17 -77 -16 -78 -88 -3 -87 -3 0 -244 0 -244 -37 -3 c-21
-2 -62 -1 -90 0 l-53 4 0 244 0 244 -90 0 -90 0 0 80 0 80 90 0 90 0 0 83 c1
210 37 288 158 333 37 14 157 13 195 -1z"/>
<path d="M846 1604 c-82 -20 -171 -65 -241 -121 -56 -46 -81 -83 -55 -83 7 0
34 20 62 45 65 58 187 119 271 135 44 8 67 17 67 26 0 17 -27 17 -104 -2z"/>
<path d="M435 1266 c-38 -86 -55 -167 -55 -262 0 -156 45 -284 139 -401 44
-55 81 -79 81 -53 0 7 -20 34 -43 60 -153 170 -190 430 -92 641 13 29 22 56
19 61 -12 19 -26 5 -49 -46z"/>
</g>
</svg>
